<svg width="23" height="30" viewBox="0 0 23 30" fill="none" xmlns="http://www.w3.org/2000/svg">
<path d="M22.3166 7.10597L21.4208 4.19321C21.2659 3.69262 20.8096 3.35627 20.286 3.35627H19.6121L18.8586 0.843717C18.7058 0.339219 18.2485 0 17.7213 0H4.64794C4.12087 0 3.66358 0.33928 3.50959 0.846644L2.75705 3.35627H2.08318C1.5596 3.35627 1.10328 3.69262 0.94788 4.1951L0.0545187 7.09914C-0.0591031 7.45854 0.00676443 7.85436 0.234435 8.16412C0.457714 8.46406 0.813705 8.64306 1.18738 8.64306H1.67425L2.11471 13.3135C1.99993 13.3555 1.89314 13.4165 1.80941 13.5089C1.6648 13.6682 1.59454 13.8811 1.61516 14.0956L2.47308 22.8915C2.5062 23.229 2.7601 23.4847 3.0801 23.5516L3.58631 28.9193C3.64193 29.5354 4.15033 30 4.76931 30H17.5997C18.2188 30 18.7272 29.5354 18.7822 28.9236L19.289 23.5514C19.6086 23.4841 19.8619 23.2287 19.895 22.8915L20.753 14.0956C20.7736 13.8812 20.7034 13.6682 20.5588 13.5089C20.4751 13.4167 20.3687 13.3557 20.2544 13.3137L20.6948 8.643H21.1818C21.5555 8.643 21.9115 8.46406 22.139 8.15863C22.3623 7.85436 22.4282 7.45854 22.3166 7.10597ZM2.69344 5.37029H19.6758L20.0632 6.62904H2.30597L2.69344 5.37029ZM5.26209 2.01397H17.1071L17.5098 3.35627H4.85939L5.26209 2.01397ZM5.52117 27.986L5.10566 23.5803H17.2633L16.8478 27.986H5.52117ZM18.2369 13.2586H4.13222L3.697 8.64306H18.6722L18.2369 13.2586Z" fill="black"/>
</svg>
