<svg width="30" height="30" viewBox="0 0 30 30" fill="none" xmlns="http://www.w3.org/2000/svg">
<path d="M29.27 17.0236C28.9631 16.9469 28.6562 17.0236 28.3877 17.2154C27.3903 18.0594 26.2394 18.7499 24.9735 19.2103C23.7843 19.6706 22.48 19.9008 21.0989 19.9008C17.9916 19.9008 15.1529 18.6348 13.1197 16.6017C11.0865 14.5685 9.82059 11.7297 9.82059 8.62242C9.82059 7.31812 10.0508 6.05219 10.4344 4.90134C10.8564 3.67376 11.4701 2.56127 12.2757 1.60223C12.621 1.18025 12.5443 0.566464 12.1223 0.221209C11.8538 0.0294007 11.5469 -0.0473227 11.24 0.0294007C7.97923 0.91172 5.14047 2.86817 3.1073 5.47676C1.15085 8.047 0 11.231 0 14.6836C0 18.865 1.68791 22.6628 4.44996 25.4248C7.212 28.1869 10.9714 29.8748 15.1912 29.8748C18.7205 29.8748 21.9813 28.6472 24.5898 26.6141C27.2368 24.5425 29.1549 21.5887 29.9605 18.2128C30.1139 17.6758 29.807 17.1387 29.27 17.0236Z" fill="black"/>
</svg>
